P2
6 6
7
4 3 2 1 1 1
5 3 3 2 1 5
4 3 2 1 0 4
4 3 3 0 1 3
3 3 3 2 3 2
4 6 7 5 7 7
