P2
8 8
5
0 2 0 0 0 0 0 0
1 5 0 0 0 0 0 0
0 2 2 1 0 0 0 0
0 1 4 5 1 0 0 0
0 3 2 0 0 0 0 0
0 1 1 1 0 0 0 0
0 0 1 0 0 0 0 0
0 0 3 0 0 0 0 0
